<?xml version="1.0" encoding="UTF-8" standalone="no"?>
<svg width="154px" height="91px" viewBox="0 0 154 91" version="1.1" xmlns="http://www.w3.org/2000/svg" xmlns:xlink="http://www.w3.org/1999/xlink" xmlns:sketch="http://www.bohemiancoding.com/sketch/ns">
    <!-- Generator: Sketch 3.4.4 (17249) - http://www.bohemiancoding.com/sketch -->
    <title>Icon</title>
    <desc>Created with Sketch.</desc>
    <defs>
        <path d="M4,2.49829899 L4,2.49829899 L4,52.995451 C4,51.8980825 3.10866791,51 1.99161703,51 L28.008383,51 C26.8912564,51 26,51.8951302 26,52.995451 L26,2.49829899 C26,3.59566747 26.8913321,4.49375 28.008383,4.49375 L1.99161703,4.49375 C3.10874359,4.49375 4,3.59861985 4,2.49829899 L4,2.49829899 Z M0,2.49829899 C0,1.39121715 0.89784041,0.49375 1.99161703,0.49375 L28.008383,0.49375 C29.1083227,0.49375 30,1.39433179 30,2.49829899 L30,52.995451 C30,54.1025328 29.1021596,55 28.008383,55 L1.99161703,55 C0.891677316,55 0,54.0994182 0,52.995451 L0,2.49829899 L0,2.49829899 Z" id="path-1"></path>
        <linearGradient x1="0%" y1="0%" x2="100%" y2="100%" id="linearGradient-3">
            <stop stop-color="#65D165" offset="0%"></stop>
            <stop stop-color="#57D39C" offset="100%"></stop>
        </linearGradient>
        <rect id="path-4" x="-2.05273438" y="-37.9296875" width="87.8203125" height="92.9296875"></rect>
        <path d="M4.54793526,2.15952437 L4.54793526,2.15952437 L4.54793526,88.9967256 C4.54793526,87.898402 3.65544315,87 2.53955228,87 L28.5563182,87 C27.4397637,87 26.5479353,87.8951352 26.5479353,88.9967256 L26.5479353,2.15952437 C26.5479353,3.25784802 27.4404274,4.15625 28.5563182,4.15625 L2.53955228,4.15625 C3.65610677,4.15625 4.54793526,3.26111483 4.54793526,2.15952437 L4.54793526,2.15952437 Z M0.547935256,2.15952437 C0.547935256,1.05314648 1.44577567,0.15625 2.53955228,0.15625 L28.5563182,0.15625 C29.6562579,0.15625 30.5479353,1.0553625 30.5479353,2.15952437 L30.5479353,88.9967256 C30.5479353,90.1031035 29.6500948,91 28.5563182,91 L2.53955228,91 C1.43961257,91 0.547935256,90.1008875 0.547935256,88.9967256 L0.547935256,2.15952437 L0.547935256,2.15952437 Z" id="path-5"></path>
        <rect id="path-7" x="-28.0527344" y="-1.9296875" width="87.8203125" height="92.9296875"></rect>
        <path d="M4.48391783,2.18573249 L4.48391783,2.18573249 L4.48391783,70.0044461 C4.48391783,68.898668 3.5874892,68 2.47553485,68 L28.4923008,68 C27.3792106,68 26.4839178,68.8951492 26.4839178,70.0044461 L26.4839178,2.18573249 C26.4839178,3.29151057 27.3803465,4.19017857 28.4923008,4.19017857 L2.47553485,4.19017857 C3.58862501,4.19017857 4.48391783,3.2950294 4.48391783,2.18573249 L4.48391783,2.18573249 Z M0.483917825,2.18573249 C0.483917825,1.08361849 1.38175824,0.190178571 2.47553485,0.190178571 L28.4923008,0.190178571 C29.5922405,0.190178571 30.4839178,1.08512176 30.4839178,2.18573249 L30.4839178,70.0044461 C30.4839178,71.1065601 29.5860774,72 28.4923008,72 L2.47553485,72 C1.37559514,72 0.483917825,71.1050568 0.483917825,70.0044461 L0.483917825,2.18573249 L0.483917825,2.18573249 Z" id="path-8"></path>
        <rect id="path-10" x="-54.0527344" y="-20.9296875" width="87.8203125" height="92.9296875"></rect>
        <path id="path-11" d="M2,4 L152,4 C153.104569,4 154,3.1045695 154,2 C154,0.8954305 153.104569,0 152,0 L2,0 C0.8954305,0 0,0.8954305 0,2 C0,3.1045695 0.8954305,4 2,4 L2,4 Z"></path>
        <rect id="path-13" x="0" y="-10" width="154" height="14"></rect>
    </defs>
    <g id="Page-1" stroke="none" stroke-width="1" fill="none" fill-rule="evenodd" sketch:type="MSPage">
        <g id="v5-cb" sketch:type="MSArtboardGroup" transform="translate(-643.000000, -199.000000)">
            <g id="Intro" sketch:type="MSLayerGroup" transform="translate(299.000000, 197.000000)">
                <g id="Icon" transform="translate(344.000000, 0.000000)">
                    <g id="bar-graph">
                        <g id="bars-thick" transform="translate(0.000000, 2.000000)">
                            <g id="Shape-+-Rectangle-783-Copy-2" transform="translate(36.000000, 36.000000)">
                                <mask id="mask-2" sketch:name="Mask" fill="white">
                                    <use xlink:href="#path-1"></use>
                                </mask>
                                <use id="Mask" fill="#FFFFFF" sketch:type="MSShapeGroup" xlink:href="#path-1"></use>
                                <g id="Rectangle-783-Copy-2">
                                    <use fill="url(#linearGradient-3)" fill-rule="evenodd" sketch:type="MSShapeGroup" mask="url(#mask-2)" xlink:href="#path-4"></use>
                                    <use fill="none" xlink:href="#path-4"></use>
                                </g>
                            </g>
                            <g id="Shape-+-Rectangle-783-Copy-3" transform="translate(62.000000, 0.000000)">
                                <mask id="mask-6" sketch:name="Mask" fill="white">
                                    <use xlink:href="#path-5"></use>
                                </mask>
                                <use id="Mask" fill="#FFFFFF" sketch:type="MSShapeGroup" xlink:href="#path-5"></use>
                                <g id="Rectangle-783-Copy-3">
                                    <use fill="url(#linearGradient-3)" fill-rule="evenodd" sketch:type="MSShapeGroup" mask="url(#mask-6)" xlink:href="#path-7"></use>
                                    <use fill="none" xlink:href="#path-7"></use>
                                </g>
                            </g>
                            <g id="Shape-+-Rectangle-783-Copy-4" transform="translate(88.000000, 19.000000)">
                                <mask id="mask-9" sketch:name="Mask" fill="white">
                                    <use xlink:href="#path-8"></use>
                                </mask>
                                <use id="Mask" fill="#FFFFFF" sketch:type="MSShapeGroup" xlink:href="#path-8"></use>
                                <g id="Rectangle-783-Copy-4">
                                    <use fill="url(#linearGradient-3)" fill-rule="evenodd" sketch:type="MSShapeGroup" mask="url(#mask-9)" xlink:href="#path-10"></use>
                                    <use fill="none" xlink:href="#path-10"></use>
                                </g>
                            </g>
                            <g id="Shape-+-Rectangle-783-Copy-5" transform="translate(0.000000, 87.000000)">
                                <mask id="mask-12" sketch:name="Mask" fill="white">
                                    <use xlink:href="#path-11"></use>
                                </mask>
                                <use id="Mask" fill="#FFFFFF" sketch:type="MSShapeGroup" xlink:href="#path-11"></use>
                                <g id="Rectangle-783-Copy-5">
                                    <use fill="url(#linearGradient-3)" fill-rule="evenodd" sketch:type="MSShapeGroup" mask="url(#mask-12)" xlink:href="#path-13"></use>
                                    <use fill="none" xlink:href="#path-13"></use>
                                </g>
                            </g>
                        </g>
                    </g>
                </g>
            </g>
        </g>
    </g>
</svg>