<?xml version="1.0" encoding="UTF-8" standalone="no"?>
<svg width="781px" height="195px" viewBox="0 0 781 195" version="1.1" xmlns="http://www.w3.org/2000/svg" xmlns:xlink="http://www.w3.org/1999/xlink" xmlns:sketch="http://www.bohemiancoding.com/sketch/ns">
    <!-- Generator: Sketch 3.4.4 (17249) - http://www.bohemiancoding.com/sketch -->
    <title>Artboard 1</title>
    <desc>Created with Sketch.</desc>
    <defs>
        <rect id="path-1" x="0" y="0" width="170" height="141" rx="4"></rect>
    </defs>
    <g id="Page-1" stroke="none" stroke-width="1" fill="none" fill-rule="evenodd" sketch:type="MSPage">
        <g id="Artboard-1" sketch:type="MSArtboardGroup">
            <g id="form" sketch:type="MSLayerGroup" transform="translate(25.000000, 11.000000)">
                <path d="M0.25632014,14.8839864 C0.129089286,13.6671997 1.0109714,12.5767331 2.22006376,12.4489946 L114.827555,0.552205898 C116.039332,0.424183785 117.125137,1.30991397 117.252042,2.52358866 L131.74368,141.116014 C131.870911,142.3328 130.989029,143.423267 129.779936,143.551005 L17.1724449,155.447794 C15.9606684,155.575816 14.8748631,154.690086 14.7479576,153.476411 L0.25632014,14.8839864 L0.25632014,14.8839864 Z" id="Rectangle-1-Copy-2" stroke="#E5DED6" stroke-width="2" fill="#F8F5F1" sketch:type="MSShapeGroup"></path>
                <path d="M7.17991632,10.1025056 C7.17991632,7.89571712 8.96550325,6.10676157 11.1825302,6.10676157 L111.317172,6.10676157 L120.823571,6.10676157 C123.030784,6.10676157 124.820084,7.89374953 124.820084,10.1058495 L124.820084,18.2175461 L124.820084,145.89858 C124.820084,148.104769 123.019313,149.893238 120.821642,149.893238 L11.1783581,149.893238 C8.97007967,149.893238 7.17991632,148.101273 7.17991632,145.897494 L7.17991632,10.1025056 Z" id="Rectangle-1" stroke="#E5DED6" stroke-width="2" fill="#FFFFFF" sketch:type="MSShapeGroup"></path>
                <g id="form-fields" transform="translate(28.167364, 32.199288)" sketch:type="MSShapeGroup">
                    <rect id="Rectangle-12" stroke="#E5DED6" stroke-width="2" stroke-linejoin="round" fill="#FCFAF7" x="0" y="0" width="74.0083682" height="10.5480427" rx="4"></rect>
                    <rect id="Rectangle-12-Copy" stroke="#E5DED6" stroke-width="2" stroke-linejoin="round" fill="#FCFAF7" x="0" y="17.2099644" width="74.0083682" height="10.5480427" rx="4"></rect>
                    <rect id="Rectangle-12-Copy-5" fill="#3CC76A" x="25.958159" y="89.9359431" width="22.6443515" height="7.21708185" rx="4"></rect>
                    <rect id="Rectangle-12-Copy-2" stroke="#E5DED6" stroke-width="2" stroke-linejoin="round" fill="#FCFAF7" x="0" y="38.3060498" width="7.17991632" height="7.21708185" rx="2"></rect>
                    <rect id="Rectangle-12-Copy-3" stroke="#E5DED6" stroke-width="2" stroke-linejoin="round" fill="#FCFAF7" x="0" y="52.1850534" width="7.17991632" height="7.21708185" rx="2"></rect>
                    <rect id="Rectangle-12-Copy-4" stroke="#E5DED6" stroke-width="2" stroke-linejoin="round" fill="#FCFAF7" x="0" y="66.0640569" width="7.17991632" height="7.21708185" rx="2"></rect>
                    <path d="M11.874477,41.6370107 L71.1665315,41.6370107" id="Line" stroke="#E5DED6" stroke-width="2" stroke-linecap="round"></path>
                    <path d="M11.874477,56.0711744 L71.1665315,56.0711744" id="Line-Copy" stroke="#E5DED6" stroke-width="2" stroke-linecap="round"></path>
                    <path d="M11.874477,69.3950178 L71.1665315,69.3950178" id="Line-Copy-2" stroke="#E5DED6" stroke-width="2" stroke-linecap="round"></path>
                </g>
            </g>
            <g id="launch" sketch:type="MSLayerGroup" transform="translate(494.000000, 29.000000)">
                <g id="your-app-here" sketch:type="MSShapeGroup">
                    <rect id="blank" stroke="#E5DED6" stroke-width="2" fill="#F8F5F1" x="50.9411765" y="0" width="199.058824" height="78.4511278" rx="3"></rect>
                    <rect id="blank" stroke="#E5DED6" stroke-width="2" fill="#F8F5F1" x="26" y="21.8045113" width="199.058824" height="78.4511278" rx="3"></rect>
                    <g id="your-integration" transform="translate(0.000000, 42.548872)">
                        <rect id="background" stroke="#E5DED6" stroke-width="2" fill="#FFFFFF" x="0" y="0" width="199.058824" height="78.4511278" rx="3"></rect>
                        <g id="switch" transform="translate(145.065362, 32.635656)">
                            <rect id="pill" fill="#3CC76A" x="0" y="0" width="40.6601055" height="15.9000826" rx="6"></rect>
                            <ellipse id="circle" fill="#FFFFFF" cx="32.8223865" cy="8.01364164" rx="5.63515808" ry="5.61449584"></ellipse>
                        </g>
                        <path d="M27.129646,43.0172962 L27.129646,47.3411978 L25.6459806,47.3411978 L25.6459806,42.9998611 L21.8408154,36.4442682 L23.5164845,36.4442682 L26.4139956,41.5353137 L29.276597,36.4442682 L30.9173563,36.4442682 L27.129646,43.0172962 Z M38.4578672,43.3485628 C38.4578672,43.9878526 38.3589572,44.5690163 38.1611342,45.0920716 C37.9633111,45.6151268 37.689854,46.0626229 37.3407545,46.4345733 C36.991655,46.8065237 36.5756511,47.0941997 36.0927301,47.2976101 C35.6098092,47.5010205 35.089077,47.6027241 34.5305178,47.6027241 C33.960322,47.6027241 33.4395898,47.5010205 32.9683055,47.2976101 C32.4970212,47.0941997 32.0926537,46.8094295 31.7551909,46.4432908 C31.417728,46.0771522 31.1529982,45.6296561 30.9609935,45.1007891 C30.7689888,44.5719221 30.6729879,43.9878526 30.6729879,43.3485628 C30.6729879,42.7092731 30.7718979,42.1281093 30.969721,41.6050541 C31.167544,41.0819989 31.4410012,40.6315969 31.7901006,40.2538348 C32.1392001,39.8760727 32.5552041,39.5854908 33.038125,39.3820805 C33.5210459,39.1786701 34.0475964,39.0769664 34.6177922,39.0769664 C35.187988,39.0769664 35.7087203,39.1786701 36.1800046,39.3820805 C36.6512889,39.5854908 37.0556563,39.8731669 37.3931192,40.2451173 C37.730582,40.6170677 37.9924027,41.0645638 38.1785891,41.587619 C38.3647754,42.1106742 38.4578672,42.6976496 38.4578672,43.3485628 L38.4578672,43.3485628 Z M37.0440214,43.3659979 C37.0440214,42.9359303 36.9887482,42.5378331 36.8782,42.1716944 C36.7676519,41.8055558 36.6047412,41.4888215 36.3894632,41.2214822 C36.1741852,40.9541428 35.9123645,40.7449239 35.6039933,40.593819 C35.2956221,40.4427142 34.9436188,40.3671629 34.5479727,40.3671629 C34.1523266,40.3671629 33.8003233,40.4398084 33.4919521,40.5851015 C33.1835809,40.7303946 32.9246693,40.9338019 32.7152096,41.1953295 C32.5057499,41.4568572 32.3486575,41.7706856 32.2439277,42.1368243 C32.1391978,42.5029629 32.0868337,42.9010601 32.0868337,43.3311277 C32.0868337,43.7611954 32.142107,44.1563867 32.2526551,44.5167137 C32.3632033,44.8770406 32.5261139,45.190869 32.7413919,45.4582084 C32.9566699,45.7255477 33.2184906,45.9347667 33.5268618,46.0858715 C33.835233,46.2369764 34.1872364,46.3125277 34.5828825,46.3125277 C34.9785285,46.3125277 35.3305319,46.2398822 35.6389031,46.0945891 C35.9472743,45.949296 36.2061858,45.7458886 36.4156455,45.484361 C36.6251052,45.2228334 36.7821976,44.9119108 36.8869275,44.5515839 C36.9916573,44.1912569 37.0440214,43.7960656 37.0440214,43.3659979 L37.0440214,43.3659979 Z M41.7742957,39.3559278 L41.7742957,44.377233 C41.7742957,45.07464 41.905206,45.5570059 42.1670306,45.8243452 C42.4288552,46.0916846 42.8215862,46.2253522 43.3452354,46.2253522 C43.8107014,46.2253522 44.2325236,46.1352719 44.6107147,45.9551084 C44.9889058,45.7749449 45.2943633,45.5744434 45.5270962,45.3535979 L45.5270962,39.3559278 L46.9583969,39.3559278 L46.9583969,47.376068 L45.5270962,47.6027241 L45.5270962,46.4345733 C45.1547235,46.8065237 44.7416286,47.0941997 44.2877993,47.2976101 C43.83397,47.5010205 43.3510563,47.6027241 42.8390437,47.6027241 C42.0710249,47.6027241 41.4630191,47.3615412 41.0150081,46.879168 C40.5669971,46.3967948 40.342995,45.7197391 40.342995,44.8479803 L40.342995,39.3559278 L41.7742957,39.3559278 Z M50.8682915,47.3411978 L49.4369908,47.3411978 L49.4369908,39.3210577 L50.8682915,39.0944015 L50.8682915,40.5066436 C51.1475711,40.0649525 51.4617559,39.7191601 51.8108554,39.4692559 C52.1599548,39.2193517 52.5905044,39.0944015 53.1025169,39.0944015 C53.6727128,39.0944015 54.1730812,39.2280692 54.6036372,39.4954085 L54.2370846,40.8379103 C54.0159882,40.7100523 53.7978043,40.6170661 53.5825263,40.5589489 C53.3672483,40.5008316 53.1607009,40.4717734 52.9628779,40.4717734 C52.5788684,40.4717734 52.2094104,40.6083469 51.8544926,40.881498 C51.4995748,41.154649 51.1708444,41.5701811 50.8682915,42.1281067 L50.8682915,47.3411978 Z M62.9819827,47.2540224 C62.3768769,47.4864914 61.7775985,47.6027241 61.1841294,47.6027241 C60.4044739,47.6027241 59.8168319,47.4051285 59.4211858,47.0099312 C59.0255398,46.6147339 58.8393562,45.9812654 58.8626295,45.1095066 L58.9848137,40.6461243 L57.6582423,40.5589489 L57.710607,39.6523243 L59.0371783,39.2513173 L59.0720881,37.5252437 L60.4510241,37.5252437 L60.3986595,39.3559278 L62.8947082,39.3559278 L62.8423436,40.6461243 L60.3462948,40.6461243 L60.2241106,45.1618119 C60.2008373,45.9173361 60.5499315,46.2950926 61.2714038,46.2950926 C61.5157734,46.2950926 61.7601394,46.2689402 62.004509,46.2166347 C62.2488787,46.1643292 62.4874264,46.0916837 62.7201594,45.9986961 C62.731796,45.9986961 62.7492507,46.0626241 62.772524,46.1904821 C62.7957973,46.31834 62.8248885,46.4636309 62.8597985,46.6263592 C62.9063451,46.8123344 62.9470727,47.0215534 62.9819827,47.2540224 L62.9819827,47.2540224 Z M71.8665198,43.3485628 C71.8665198,43.9878526 71.7676098,44.5690163 71.5697868,45.0920716 C71.3719637,45.6151268 71.0985066,46.0626229 70.7494071,46.4345733 C70.4003076,46.8065237 69.9843037,47.0941997 69.5013827,47.2976101 C69.0184618,47.5010205 68.4977296,47.6027241 67.9391704,47.6027241 C67.3689746,47.6027241 66.8482424,47.5010205 66.3769581,47.2976101 C65.9056738,47.0941997 65.5013063,46.8094295 65.1638435,46.4432908 C64.8263806,46.0771522 64.5616508,45.6296561 64.3696461,45.1007891 C64.1776414,44.5719221 64.0816405,43.9878526 64.0816405,43.3485628 C64.0816405,42.7092731 64.1805505,42.1281093 64.3783736,41.6050541 C64.5761966,41.0819989 64.8496538,40.6315969 65.1987532,40.2538348 C65.5478527,39.8760727 65.9638567,39.5854908 66.4467776,39.3820805 C66.9296986,39.1786701 67.456249,39.0769664 68.0264448,39.0769664 C68.5966406,39.0769664 69.1173729,39.1786701 69.5886572,39.3820805 C70.0599415,39.5854908 70.464309,39.8731669 70.8017718,40.2451173 C71.1392346,40.6170677 71.4010553,41.0645638 71.5872417,41.587619 C71.7734281,42.1106742 71.8665198,42.6976496 71.8665198,43.3485628 L71.8665198,43.3485628 Z M70.452674,43.3659979 C70.452674,42.9359303 70.3974008,42.5378331 70.2868526,42.1716944 C70.1763045,41.8055558 70.0133938,41.4888215 69.7981158,41.2214822 C69.5828378,40.9541428 69.3210171,40.7449239 69.0126459,40.593819 C68.7042747,40.4427142 68.3522714,40.3671629 67.9566253,40.3671629 C67.5609792,40.3671629 67.2089759,40.4398084 66.9006047,40.5851015 C66.5922335,40.7303946 66.3333219,40.9338019 66.1238622,41.1953295 C65.9144025,41.4568572 65.7573101,41.7706856 65.6525803,42.1368243 C65.5478504,42.5029629 65.4954863,42.9010601 65.4954863,43.3311277 C65.4954863,43.7611954 65.5507596,44.1563867 65.6613077,44.5167137 C65.7718559,44.8770406 65.9347665,45.190869 66.1500445,45.4582084 C66.3653226,45.7255477 66.6271432,45.9347667 66.9355144,46.0858715 C67.2438856,46.2369764 67.595889,46.3125277 67.9915351,46.3125277 C68.3871811,46.3125277 68.7391845,46.2398822 69.0475557,46.0945891 C69.3559269,45.949296 69.6148385,45.7458886 69.8242981,45.484361 C70.0337578,45.2228334 70.1908502,44.9119108 70.2955801,44.5515839 C70.4003099,44.1912569 70.452674,43.7960656 70.452674,43.3659979 L70.452674,43.3659979 Z M81.0826999,43.3485628 C81.0826999,43.9878526 80.9837898,44.5690163 80.7859668,45.0920716 C80.5881438,45.6151268 80.3146866,46.0626229 79.9655871,46.4345733 C79.6164877,46.8065237 79.2004837,47.0941997 78.7175628,47.2976101 C78.2346418,47.5010205 77.7139096,47.6027241 77.1553504,47.6027241 C76.5851546,47.6027241 76.0644224,47.5010205 75.5931381,47.2976101 C75.1218538,47.0941997 74.7174863,46.8094295 74.3800235,46.4432908 C74.0425607,46.0771522 73.7778309,45.6296561 73.5858262,45.1007891 C73.3938215,44.5719221 73.2978205,43.9878526 73.2978205,43.3485628 C73.2978205,42.7092731 73.3967306,42.1281093 73.5945536,41.6050541 C73.7923766,41.0819989 74.0658338,40.6315969 74.4149333,40.2538348 C74.7640327,39.8760727 75.1800367,39.5854908 75.6629576,39.3820805 C76.1458786,39.1786701 76.6724291,39.0769664 77.2426249,39.0769664 C77.8128207,39.0769664 78.3335529,39.1786701 78.8048372,39.3820805 C79.2761215,39.5854908 79.680489,39.8731669 80.0179518,40.2451173 C80.3554146,40.6170677 80.6172353,41.0645638 80.8034217,41.587619 C80.9896081,42.1106742 81.0826999,42.6976496 81.0826999,43.3485628 L81.0826999,43.3485628 Z M79.6688541,43.3659979 C79.6688541,42.9359303 79.6135808,42.5378331 79.5030327,42.1716944 C79.3924845,41.8055558 79.2295738,41.4888215 79.0142958,41.2214822 C78.7990178,40.9541428 78.5371972,40.7449239 78.2288259,40.593819 C77.9204547,40.4427142 77.5684514,40.3671629 77.1728053,40.3671629 C76.7771592,40.3671629 76.4251559,40.4398084 76.1167847,40.5851015 C75.8084135,40.7303946 75.5495019,40.9338019 75.3400422,41.1953295 C75.1305826,41.4568572 74.9734902,41.7706856 74.8687603,42.1368243 C74.7640305,42.5029629 74.7116663,42.9010601 74.7116663,43.3311277 C74.7116663,43.7611954 74.7669396,44.1563867 74.8774878,44.5167137 C74.9880359,44.8770406 75.1509466,45.190869 75.3662246,45.4582084 C75.5815026,45.7255477 75.8433233,45.9347667 76.1516945,46.0858715 C76.4600657,46.2369764 76.812069,46.3125277 77.2077151,46.3125277 C77.6033612,46.3125277 77.9553645,46.2398822 78.2637357,46.0945891 C78.5721069,45.949296 78.8310185,45.7458886 79.0404782,45.484361 C79.2499379,45.2228334 79.4070303,44.9119108 79.5117601,44.5515839 C79.6164899,44.1912569 79.6688541,43.7960656 79.6688541,43.3659979 L79.6688541,43.3659979 Z M83.0376472,47.3411978 L83.0376472,35.589949 L84.4689478,35.3632928 L84.4689478,47.3411978 L83.0376472,47.3411978 Z M94.8196955,47.3411978 L94.8196955,42.3198927 C94.8196955,41.6224857 94.6887852,41.1401198 94.4269605,40.8727804 C94.1651359,40.6054411 93.7724049,40.4717734 93.2487557,40.4717734 C92.7832897,40.4717734 92.3614675,40.5618538 91.9832764,40.7420173 C91.6050854,40.9221807 91.2996279,41.1226822 91.0668949,41.3435278 L91.0668949,47.3411978 L89.6355942,47.3411978 L89.6355942,35.589949 L91.0668949,35.3632928 L91.0668949,40.2625524 C91.4392677,39.890602 91.8523625,39.6029259 92.3061918,39.3995155 C92.7600212,39.1961052 93.2429349,39.0944015 93.7549474,39.0944015 C94.5229663,39.0944015 95.1309721,39.3355845 95.578983,39.8179576 C96.026994,40.3003308 96.2509962,40.9773866 96.2509962,41.8491453 L96.2509962,47.3411978 L94.8196955,47.3411978 Z M99.5848795,43.592654 C99.5965161,43.9878513 99.6692441,44.3481729 99.8030656,44.6736295 C99.936887,44.9990861 100.117252,45.2809505 100.344167,45.5192312 C100.571082,45.7575119 100.844539,45.9434843 101.164547,46.077154 C101.484555,46.2108237 101.836558,46.2776575 102.220567,46.2776575 C102.639487,46.2776575 103.061309,46.2224469 103.486047,46.1120242 C103.910784,46.0016014 104.286061,45.8359697 104.611887,45.6151242 L104.87371,46.9401908 C104.512974,47.1610364 104.102788,47.326668 103.643141,47.4370908 C103.183493,47.5475136 102.69767,47.6027241 102.185658,47.6027241 C101.580552,47.6027241 101.030728,47.5010205 100.536171,47.2976101 C100.041613,47.0941997 99.6168819,46.8065237 99.2619641,46.4345733 C98.9070463,46.0626229 98.63068,45.6209384 98.432857,45.1095066 C98.2350339,44.5980749 98.1361239,44.0401576 98.1361239,43.4357383 C98.1361239,42.7848251 98.2379431,42.1949439 98.4415844,41.6660769 C98.6452258,41.1372099 98.9215921,40.6809964 99.2706915,40.2974225 C99.619791,39.9138487 100.035795,39.6174552 100.518716,39.4082331 C101.001637,39.199011 101.522369,39.0944015 102.080928,39.0944015 C103.058407,39.0944015 103.811868,39.3762659 104.341336,39.9400033 C104.870804,40.5037406 105.135533,41.2621593 105.135533,42.2152822 C105.135533,42.4361277 105.120988,42.6598757 105.091896,42.886533 C105.062805,43.1131903 105.019168,43.3136918 104.960984,43.4880435 L104.12315,43.4880435 L103.259133,43.4880435 C102.939125,43.4880435 102.610395,43.4938552 102.272932,43.5054786 C101.48164,43.5171021 100.585631,43.5229137 99.5848795,43.5229137 L99.5848795,43.592654 Z M103.756597,42.4419383 L103.756597,42.3198927 C103.756597,41.7270967 103.611141,41.2505425 103.320225,40.8902155 C103.029309,40.5298886 102.569668,40.3497278 101.941289,40.3497278 C101.603826,40.3497278 101.298369,40.41075 101.024908,40.5327962 C100.751446,40.6548424 100.518717,40.8175683 100.326712,41.0209787 C100.134707,41.224389 99.9834333,41.4510429 99.8728851,41.7009471 C99.7623369,41.9508512 99.689609,42.2094691 99.654699,42.4768085 L103.756597,42.4419383 Z M108.469417,47.3411978 L107.038116,47.3411978 L107.038116,39.3210577 L108.469417,39.0944015 L108.469417,40.5066436 C108.748696,40.0649525 109.062881,39.7191601 109.411981,39.4692559 C109.76108,39.2193517 110.19163,39.0944015 110.703642,39.0944015 C111.273838,39.0944015 111.774206,39.2280692 112.204762,39.4954085 L111.83821,40.8379103 C111.617113,40.7100523 111.39893,40.6170661 111.183652,40.5589489 C110.968373,40.5008316 110.761826,40.4717734 110.564003,40.4717734 C110.179994,40.4717734 109.810536,40.6083469 109.455618,40.881498 C109.1007,41.154649 108.77197,41.5701811 108.469417,42.1281067 L108.469417,47.3411978 Z M114.438988,43.592654 C114.450624,43.9878513 114.523352,44.3481729 114.657174,44.6736295 C114.790995,44.9990861 114.971361,45.2809505 115.198275,45.5192312 C115.42519,45.7575119 115.698647,45.9434843 116.018655,46.077154 C116.338663,46.2108237 116.690666,46.2776575 117.074676,46.2776575 C117.493595,46.2776575 117.915417,46.2224469 118.340155,46.1120242 C118.764893,46.0016014 119.140169,45.8359697 119.465995,45.6151242 L119.727818,46.9401908 C119.367082,47.1610364 118.956897,47.326668 118.497249,47.4370908 C118.037601,47.5475136 117.551778,47.6027241 117.039766,47.6027241 C116.43466,47.6027241 115.884837,47.5010205 115.390279,47.2976101 C114.895722,47.0941997 114.47099,46.8065237 114.116072,46.4345733 C113.761155,46.0626229 113.484788,45.6209384 113.286965,45.1095066 C113.089142,44.5980749 112.990232,44.0401576 112.990232,43.4357383 C112.990232,42.7848251 113.092051,42.1949439 113.295693,41.6660769 C113.499334,41.1372099 113.7757,40.6809964 114.1248,40.2974225 C114.473899,39.9138487 114.889903,39.6174552 115.372824,39.4082331 C115.855745,39.199011 116.376477,39.0944015 116.935037,39.0944015 C117.912515,39.0944015 118.665977,39.3762659 119.195444,39.9400033 C119.724912,40.5037406 119.989642,41.2621593 119.989642,42.2152822 C119.989642,42.4361277 119.975096,42.6598757 119.946004,42.886533 C119.916913,43.1131903 119.873276,43.3136918 119.815093,43.4880435 L118.977258,43.4880435 L118.113241,43.4880435 C117.793234,43.4880435 117.464503,43.4938552 117.12704,43.5054786 C116.335748,43.5171021 115.43974,43.5229137 114.438988,43.5229137 L114.438988,43.592654 Z M118.610706,42.4419383 L118.610706,42.3198927 C118.610706,41.7270967 118.46525,41.2505425 118.174334,40.8902155 C117.883417,40.5298886 117.423777,40.3497278 116.795397,40.3497278 C116.457935,40.3497278 116.152477,40.41075 115.879016,40.5327962 C115.605555,40.6548424 115.372825,40.8175683 115.18082,41.0209787 C114.988816,41.224389 114.837542,41.4510429 114.726993,41.7009471 C114.616445,41.9508512 114.543717,42.2094691 114.508807,42.4768085 L118.610706,42.4419383 Z" id="Your-tool-here" fill="#665F57"></path>
                    </g>
                </g>
            </g>
            <g id="code" sketch:type="MSLayerGroup" transform="translate(247.000000, 19.000000)">
                <mask id="mask-2" sketch:name="Mask" fill="white">
                    <use xlink:href="#path-1"></use>
                </mask>
                <use id="Mask" stroke="#E5DED6" stroke-width="2" fill="#FFFFFF" sketch:type="MSShapeGroup" xlink:href="#path-1"></use>
                <path d="M73.7104492,82.5356445 L61.6577148,75.3007812 L61.6577148,73.3671875 L73.7104492,66.1967773 L73.7104492,68.5170898 L64.0424805,74.4145508 L73.7104492,80.1669922 L73.7104492,82.5356445 Z M91.5136719,62.8291016 L81.6362305,86.4350586 L79.2675781,86.4350586 L89.0966797,62.8291016 L91.5136719,62.8291016 Z M109.945312,75.3007812 L97.8925781,82.5356445 L97.8925781,80.1669922 L107.560547,74.4145508 L97.8925781,68.5170898 L97.8925781,66.1967773 L109.945312,73.3671875 L109.945312,75.3007812 Z" id="&lt;/&gt;" stroke="#3CC76A" stroke-linecap="round" stroke-linejoin="round" fill="#3CC76A" sketch:type="MSShapeGroup" mask="url(#mask-2)"></path>
                <rect id="Rectangle-33" stroke="#E7E1DA" stroke-width="2" fill="#F8F5F1" sketch:type="MSShapeGroup" mask="url(#mask-2)" x="-7" y="-9" width="182" height="24"></rect>
                <path d="M20.9960785,30 L148.5,30" id="Line" stroke="#E5DED6" stroke-width="2" stroke-linecap="round" sketch:type="MSShapeGroup" mask="url(#mask-2)"></path>
                <path d="M20.9960785,127 L85.0078125,127" id="Line-Copy-28" stroke="#E5DED6" stroke-width="2" stroke-linecap="round" sketch:type="MSShapeGroup" mask="url(#mask-2)"></path>
                <path d="M20.5,40 L45.182991,40" id="Line-Copy-3" stroke="#E5DED6" stroke-width="2" stroke-linecap="round" sketch:type="MSShapeGroup" mask="url(#mask-2)"></path>
                <path d="M20.5,116 L45.182991,116" id="Line-Copy-24" stroke="#E5DED6" stroke-width="2" stroke-linecap="round" sketch:type="MSShapeGroup" mask="url(#mask-2)"></path>
                <path d="M51.5,40 L91.0126572,40" id="Line-Copy-7" stroke="#E5DED6" stroke-width="2" stroke-linecap="round" sketch:type="MSShapeGroup" mask="url(#mask-2)"></path>
                <path d="M51.5,116 L91.0126572,116" id="Line-Copy-25" stroke="#E5DED6" stroke-width="2" stroke-linecap="round" sketch:type="MSShapeGroup" mask="url(#mask-2)"></path>
                <path d="M99.5,40 L115,40" id="Line-Copy-8" stroke="#E5DED6" stroke-width="2" stroke-linecap="round" sketch:type="MSShapeGroup" mask="url(#mask-2)"></path>
                <path d="M99.5,116 L115,116" id="Line-Copy-26" stroke="#E5DED6" stroke-width="2" stroke-linecap="round" sketch:type="MSShapeGroup" mask="url(#mask-2)"></path>
                <path d="M120.5,40 L148.018175,40" id="Line-Copy-9" stroke="#E5DED6" stroke-width="2" stroke-linecap="round" sketch:type="MSShapeGroup" mask="url(#mask-2)"></path>
                <path d="M120.5,116 L148.018175,116" id="Line-Copy-27" stroke="#E5DED6" stroke-width="2" stroke-linecap="round" sketch:type="MSShapeGroup" mask="url(#mask-2)"></path>
                <path d="M20.5,50 L73.1521606,50" id="Line-Copy-4" stroke="#E5DED6" stroke-width="2" stroke-linecap="round" sketch:type="MSShapeGroup" mask="url(#mask-2)"></path>
                <path d="M20.5,105 L73.1521606,105" id="Line-Copy-21" stroke="#E5DED6" stroke-width="2" stroke-linecap="round" sketch:type="MSShapeGroup" mask="url(#mask-2)"></path>
                <path d="M80.5,50 L97.0302753,50" id="Line-Copy-10" stroke="#E5DED6" stroke-width="2" stroke-linecap="round" sketch:type="MSShapeGroup" mask="url(#mask-2)"></path>
                <path d="M80.5,105 L97.0302753,105" id="Line-Copy-22" stroke="#E5DED6" stroke-width="2" stroke-linecap="round" sketch:type="MSShapeGroup" mask="url(#mask-2)"></path>
                <path d="M104.5,50 L148.011494,50" id="Line-Copy-11" stroke="#E5DED6" stroke-width="2" stroke-linecap="round" sketch:type="MSShapeGroup" mask="url(#mask-2)"></path>
                <path d="M104.5,105 L148.011494,105" id="Line-Copy-23" stroke="#E5DED6" stroke-width="2" stroke-linecap="round" sketch:type="MSShapeGroup" mask="url(#mask-2)"></path>
                <path d="M20.5,60 L33.158989,60" id="Line-Copy-5" stroke="#E5DED6" stroke-width="2" stroke-linecap="round" sketch:type="MSShapeGroup" mask="url(#mask-2)"></path>
                <path d="M40.5,60 L64,60" id="Line-Copy-12" stroke="#E5DED6" stroke-width="2" stroke-linecap="round" sketch:type="MSShapeGroup" mask="url(#mask-2)"></path>
                <path d="M106.98781,60 L148.009521,60" id="Line-Copy-13" stroke="#E5DED6" stroke-width="2" stroke-linecap="round" sketch:type="MSShapeGroup" mask="url(#mask-2)"></path>
                <path d="M111,83 L148.009521,83" id="Line-Copy-19" stroke="#E5DED6" stroke-width="2" stroke-linecap="round" sketch:type="MSShapeGroup" mask="url(#mask-2)"></path>
                <path d="M20,71 L51.0095215,71" id="Line-Copy-16" stroke="#E5DED6" stroke-width="2" stroke-linecap="round" sketch:type="MSShapeGroup" mask="url(#mask-2)"></path>
                <path d="M122.980776,71 L149,71" id="Line-Copy-18" stroke="#E5DED6" stroke-width="2" stroke-linecap="round" sketch:type="MSShapeGroup" mask="url(#mask-2)"></path>
                <path d="M20.5,95 L58.1198082,95" id="Line-Copy-6" stroke="#E5DED6" stroke-width="2" stroke-linecap="round" sketch:type="MSShapeGroup" mask="url(#mask-2)"></path>
                <path d="M20.5,83 L58.1198082,83" id="Line-Copy-17" stroke="#E5DED6" stroke-width="2" stroke-linecap="round" sketch:type="MSShapeGroup" mask="url(#mask-2)"></path>
                <path d="M65.5,95 L83,95" id="Line-Copy-14" stroke="#E5DED6" stroke-width="2" stroke-linecap="round" sketch:type="MSShapeGroup" mask="url(#mask-2)"></path>
                <path d="M116,95 L149,95" id="Line-Copy-20" stroke="#E5DED6" stroke-width="2" stroke-linecap="round" sketch:type="MSShapeGroup" mask="url(#mask-2)"></path>
                <path d="M89.5,95 L109,95" id="Line-Copy-15" stroke="#E5DED6" stroke-width="2" stroke-linecap="round" sketch:type="MSShapeGroup" mask="url(#mask-2)"></path>
            </g>
        </g>
    </g>
</svg>