<?xml version="1.0" encoding="UTF-8" standalone="no"?>
<svg width="304px" height="150px" viewBox="0 0 304 150" version="1.1" xmlns="http://www.w3.org/2000/svg" xmlns:xlink="http://www.w3.org/1999/xlink" xmlns:sketch="http://www.bohemiancoding.com/sketch/ns">
    <!-- Generator: Sketch 3.4.4 (17249) - http://www.bohemiancoding.com/sketch -->
    <title>Artboard 2</title>
    <desc>Created with Sketch.</desc>
    <defs></defs>
    <g id="Page-1" stroke="none" stroke-width="1" fill="none" fill-rule="evenodd" sketch:type="MSPage">
        <g id="Artboard-2" sketch:type="MSArtboardGroup">
            <g id="packaged" sketch:type="MSLayerGroup" transform="translate(33.000000, 32.000000)">
                <rect id="square" stroke="#E5DED6" stroke-width="2" fill="#F8F5F1" sketch:type="MSShapeGroup" x="0.0882037187" y="26.3043183" width="70.3367425" height="70.3367425" rx="4"></rect>
                <rect id="square" stroke="#E5DED6" stroke-width="2" fill="#F8F5F1" sketch:type="MSShapeGroup" x="9.22449082" y="13.2602056" width="70.3367425" height="70.3367425" rx="4"></rect>
                <g id="square" transform="translate(18.211561, 0.196448)" stroke="#E6E0D8" stroke-width="2" sketch:type="MSShapeGroup">
                    <path d="M2.27373675e-13,50.5944552 L2.27373675e-13,3.99118337 C2.27373675e-13,1.78691366 1.79156048,4.54747351e-13 4.00865126,4.54747351e-13 L66.3280913,4.54747351e-13 C68.5420082,4.54747351e-13 70.3367425,1.79156048 70.3367425,4.00865126 L70.3367425,66.3280913 C70.3367425,68.5420082 68.5435444,70.3367425 66.3290748,70.3367425 L19.5333218,70.3367425 L2.27373675e-13,50.5944552 Z" id="Rectangle-21-Copy-2" fill="#FFFFFF"></path>
                    <path d="M1.00247475,52.2053476 L16.0376603,51.4986665 C18.2400901,51.3951483 19.9205625,53.1041093 19.7918504,55.302925 L18.9205346,70.1877915 L1.00247475,52.2053476 Z" id="Rectangle-25" fill="#F8F5F1"></path>
                </g>
                <g id="circle-+-plus" transform="translate(38.211561, 17.196448)" sketch:type="MSShapeGroup">
                    <circle id="circle" fill="#D39B18" cx="17" cy="17" r="17"></circle>
                    <path d="M15.5,15.5 L15.5,10.5 C15.5,9.67157288 16.1715729,9 17,9 C17.8284271,9 18.5,9.67157288 18.5,10.5 L18.5,15.5 L23.5,15.5 C24.3284271,15.5 25,16.1715729 25,17 C25,17.8284271 24.3284271,18.5 23.5,18.5 L18.5,18.5 L18.5,23.5 C18.5,24.3284271 17.8284271,25 17,25 C16.1715729,25 15.5,24.3284271 15.5,23.5 L15.5,18.5 L10.5,18.5 C9.67157288,18.5 9,17.8284271 9,17 C9,16.1715729 9.67157288,15.5 10.5,15.5 L15.5,15.5 Z" id="plus" fill="#FAC64B"></path>
                </g>
            </g>
            <g id="direct" sketch:type="MSLayerGroup" transform="translate(166.000000, 40.000000)">
                <rect id="square" stroke="#E5DED6" stroke-width="2" fill="#F8F5F1" sketch:type="MSShapeGroup" x="2.04636308e-12" y="8.98979759" width="70.3367425" height="70.3367425" rx="4"></rect>
                <g id="square-" transform="translate(8.530614, -0.000000)" sketch:type="MSShapeGroup">
                    <path d="M0.339109839,50.7909033 L0.339109839,4.18763143 C0.339109839,1.98336172 2.13067032,0.196448064 4.3477611,0.196448064 L66.6672011,0.196448064 C68.8811181,0.196448064 70.6758524,1.98800855 70.6758524,4.20509933 L70.6758524,66.5245393 C70.6758524,68.7384563 68.8826542,70.5331906 66.6681846,70.5331906 L19.8724316,70.5331906 L0.339109839,50.7909033 Z" id="Rectangle-21-Copy-3" stroke="#E6E0D8" stroke-width="2" fill="#FFFFFF"></path>
                    <g id="Oval-5-+-Rectangle-27" transform="translate(18.964285, 16.877558)">
                        <circle id="Oval-5" fill="#2C7D99" cx="17" cy="17" r="17"></circle>
                        <path d="M17.4138711,18.3924648 L19.6839654,20.6625592 C20.4622746,21.4408683 21.2525132,21.1924456 21.4461042,20.104783 L22.7706922,12.6627809 C22.9656344,11.5675268 22.2396159,10.8436148 21.1521026,11.0289221 L13.6357298,12.3096777 C12.5464166,12.4952917 12.2986124,13.2772062 13.0782238,14.0568175 L15.292407,16.2710008 L10.4270665,21.2509452 C9.84813817,21.8435104 9.85919296,22.7931935 10.4517581,23.3721219 C11.0443232,23.9510502 11.9940064,23.9399955 12.5729347,23.3474303 L17.4138711,18.3924648 Z" id="Rectangle-27" fill="#1DB2C3"></path>
                    </g>
                    <path d="M-2.52242671e-13,51.2846839 L15.3193711,51.0287572 C17.5305904,50.9918164 19.2682543,52.7458121 19.2003795,54.952028 L18.7341306,70.1070749 L-2.52242671e-13,51.2846839 Z" id="Rectangle-25-Copy" stroke="#E6E0D8" stroke-width="2" stroke-linecap="square" fill="#F8F5F1"></path>
                </g>
            </g>
        </g>
    </g>
</svg>